# xmcd
#
# Track frame offsets:
# 150
# 14523
# 30357
# 43660
# 60318
# 75684
# 92729
# 111398
# 129757
# 149994
# 163502
# 174957
# 185111
# 197988
# 213675
#
# Disc length: 3075 seconds
#
#
# Revision: 2
# Processed by: cddbd v1.5.2PL0 Copyright (c) Steve Scherf et al.
# Submitted via: FreeRIP 2.90 
#
DISCID=d50c010f
DTITLE=Os Mirins - 40 anos
DYEAR=2003
DGENRE=Country
TTITLE0=Vaneirinha da saudade
TTITLE1=Recanto da natureza
TTITLE2=Eu vim aqui
TTITLE3=Meu canivete
TTITLE4=Promessas do meu pai
TTITLE5=O tranco da morena rosa
TTITLE6=Cancao para voce
TTITLE7=Alma de guitarra
TTITLE8=Vaneirinha do amor
TTITLE9=Tempos de guri
TTITLE10=Apeia gaucho
TTITLE11=Morena teimosa
TTITLE12=Baralho
TTITLE13=China linda
TTITLE14=Barbaridade
EXTD=
EXTT0=
EXTT1=
EXTT2=
EXTT3=
EXTT4=
EXTT5=
EXTT6=
EXTT7=
EXTT8=
EXTT9=
EXTT10=
EXTT11=
EXTT12=
EXTT13=
EXTT14=
PLAYORDER=
